<svg width="529" height="265" xmlns="http://www.w3.org/2000/svg" xmlns:xlink="http://www.w3.org/1999/xlink" overflow="hidden"><defs><clipPath id="clip0"><rect x="0" y="0" width="529" height="265"/></clipPath></defs><g clip-path="url(#clip0)"><rect x="0" y="0" width="529" height="265.417" fill="#FFFFFF"/><rect x="8.5" y="82.6299" width="274" height="172.271" stroke="#000000" stroke-width="0.999685" stroke-linejoin="round" stroke-miterlimit="10" fill="#156082"/><g><g><g><path d="M29.25 34.6667C29.25 35.8633 28.2799 36.8333 27.0833 36.8333 25.8867 36.8333 24.9167 35.8633 24.9167 34.6667 24.9167 33.47 25.8867 32.5 27.0833 32.5 28.2799 32.5 29.25 33.47 29.25 34.6667Z" transform="matrix(1 0 0 1.00157 414 116.183)"/><path d="M29.25 43.3333C29.25 44.5299 28.2799 45.5 27.0833 45.5 25.8867 45.5 24.9167 44.5299 24.9167 43.3333 24.9167 42.1367 25.8867 41.1667 27.0833 41.1667 28.2799 41.1667 29.25 42.1367 29.25 43.3333Z" transform="matrix(1 0 0 1.00157 414 116.183)"/><path d="M24.9167 39C24.9167 40.1966 23.9466 41.1667 22.75 41.1667 21.5534 41.1667 20.5833 40.1966 20.5833 39 20.5833 37.8034 21.5534 36.8333 22.75 36.8333 23.9466 36.8333 24.9167 37.8034 24.9167 39Z" transform="matrix(1 0 0 1.00157 414 116.183)"/><path d="M33.5833 39C33.5833 40.1966 32.6133 41.1667 31.4167 41.1667 30.22 41.1667 29.25 40.1966 29.25 39 29.25 37.8034 30.22 36.8333 31.4167 36.8333 32.6133 36.8333 33.5833 37.8034 33.5833 39Z" transform="matrix(1 0 0 1.00157 414 116.183)"/><path d="M59.5833 30.3333C59.5833 31.5299 58.6133 32.5 57.4167 32.5 56.22 32.5 55.25 31.5299 55.25 30.3333 55.25 29.1367 56.22 28.1667 57.4167 28.1667 58.6133 28.1667 59.5833 29.1367 59.5833 30.3333Z" transform="matrix(1 0 0 1.00157 414 116.183)"/><path d="M59.5833 39C59.5833 40.1966 58.6133 41.1667 57.4167 41.1667 56.22 41.1667 55.25 40.1966 55.25 39 55.25 37.8034 56.22 36.8333 57.4167 36.8333 58.6133 36.8333 59.5833 37.8034 59.5833 39Z" transform="matrix(1 0 0 1.00157 414 116.183)"/><path d="M55.25 34.6667C55.25 35.8633 54.2799 36.8333 53.0833 36.8333 51.8867 36.8333 50.9167 35.8633 50.9167 34.6667 50.9167 33.47 51.8867 32.5 53.0833 32.5 54.2799 32.5 55.25 33.47 55.25 34.6667Z" transform="matrix(1 0 0 1.00157 414 116.183)"/><path d="M63.9167 34.6667C63.9167 35.8633 62.9466 36.8333 61.75 36.8333 60.5534 36.8333 59.5833 35.8633 59.5833 34.6667 59.5833 33.47 60.5534 32.5 61.75 32.5 62.9466 32.5 63.9167 33.47 63.9167 34.6667Z" transform="matrix(1 0 0 1.00157 414 116.183)"/><path d="M88.8333 48.75 82.3333 55.25 73.6667 55.25 73.6667 79.0833 82.3333 79.0833 88.8333 85.5833 95.3333 85.5833 95.3333 48.75Z" transform="matrix(1 0 0 1.00157 414 116.183)"/><path d="M57.4167 44.4167C52 44.4167 47.6667 40.0833 47.6667 34.6667 47.6667 29.25 52 24.9167 57.4167 24.9167 62.8333 24.9167 67.1667 29.25 67.1667 34.6667 67.1667 40.0833 62.8333 44.4167 57.4167 44.4167ZM60.6667 79.0833C59.475 79.0833 58.5 78.1083 58.5 76.9167 58.5 75.725 59.475 74.75 60.6667 74.75 61.8583 74.75 62.8333 75.725 62.8333 76.9167 62.8333 78.1083 61.8583 79.0833 60.6667 79.0833ZM40.0833 48.75C41.4917 46.8 42.575 44.6333 43.0083 42.1417 44.4167 44.85 46.6917 47.125 49.2917 48.75L40.0833 48.75ZM27.0833 48.75C21.6667 48.75 17.3333 44.4167 17.3333 39 17.3333 33.5833 21.6667 29.25 27.0833 29.25 32.5 29.25 36.8333 33.5833 36.8333 39 36.8333 44.4167 32.5 48.75 27.0833 48.75ZM65.4333 48.75C70.3083 45.9333 73.6667 40.7333 73.6667 34.6667 73.6667 25.675 66.4083 18.4167 57.4167 18.4167 49.5083 18.4167 43.0083 24.05 41.4917 31.525 38.7833 26.325 33.3667 22.75 27.0833 22.75 18.0917 22.75 10.8333 30.0083 10.8333 39 10.8333 44.3083 13.4333 48.9667 17.3333 52L17.3333 55.25 15.1667 55.25 13 53.0833 8.66667 53.0833 8.66667 63.9167 13 63.9167 15.1667 61.75 17.3333 61.75 17.3333 81.25C17.3333 83.6333 19.2833 85.5833 21.6667 85.5833L65 85.5833C67.3833 85.5833 69.3333 83.6333 69.3333 81.25L69.3333 53.0833C69.3333 50.8083 67.6 48.9667 65.4333 48.75Z" transform="matrix(1 0 0 1.00157 414 116.183)"/></g></g></g><g><g><g><path d="M25.6667 26.5833 3.66667 26.5833 3.66667 11.9167 25.6667 11.9167 25.6667 26.5833ZM26.5833 9.16667 2.75 9.16667C1.74167 9.16667 0.916667 9.99166 0.916667 11L0.916667 27.5C0.916667 28.5083 1.74167 29.3333 2.75 29.3333L11.9167 29.3333 11.9167 32.0833 7.79167 32.0833 7.79167 34.8333 21.5417 34.8333 21.5417 32.0833 17.4167 32.0833 17.4167 29.3333 26.5833 29.3333C27.5917 29.3333 28.4167 28.5083 28.4167 27.5L28.4167 11C28.4167 9.99166 27.5917 9.16667 26.5833 9.16667Z" transform="matrix(1 0 0 1.02434 19 77.1213)"/><path d="M41.25 13.75 32.0833 13.75 32.0833 11 41.25 11 41.25 13.75ZM41.25 18.3333 32.0833 18.3333 32.0833 15.5833 41.25 15.5833 41.25 18.3333ZM36.6667 32.0833C35.8875 32.0833 35.2917 31.4875 35.2917 30.7083 35.2917 29.9292 35.8875 29.3333 36.6667 29.3333 37.4458 29.3333 38.0417 29.9292 38.0417 30.7083 38.0417 31.4875 37.4458 32.0833 36.6667 32.0833ZM41.25 9.16667 32.0833 9.16667C31.075 9.16667 30.25 9.99166 30.25 11L30.25 33C30.25 34.0083 31.075 34.8333 32.0833 34.8333L41.25 34.8333C42.2583 34.8333 43.0833 34.0083 43.0833 33L43.0833 11C43.0833 9.99166 42.2583 9.16667 41.25 9.16667Z" transform="matrix(1 0 0 1.02434 19 77.1213)"/></g></g></g><text font-family="Aptos,Aptos_MSFontService,sans-serif" font-weight="400" font-size="16.0202" transform="matrix(1 0 0 1.00157 76.1375 105)">HB10</text><rect x="16.5" y="130.706" width="91" height="29.0457" stroke="#000000" stroke-width="0.999685" stroke-linejoin="round" stroke-miterlimit="10" fill="#F6C6AD"/><text font-family="Aptos,Aptos_MSFontService,sans-serif" font-weight="400" font-size="16.0202" transform="matrix(1 0 0 1.00157 25.4353 150)">Dart</text><text font-family="Aptos,Aptos_MSFontService,sans-serif" font-weight="400" font-size="16.0202" transform="matrix(1 0 0 1.00157 55.2926 150)">-</text><text font-family="Aptos,Aptos_MSFontService,sans-serif" font-weight="400" font-size="16.0202" transform="matrix(1 0 0 1.00157 60.7909 150)">App</text><rect x="175.5" y="214.838" width="100" height="29.0457" stroke="#000000" stroke-width="0.999685" stroke-linejoin="round" stroke-miterlimit="10" fill="#F6C6AD"/><text font-family="Aptos,Aptos_MSFontService,sans-serif" font-weight="400" font-size="16.0202" transform="matrix(1 0 0 1.00157 184.657 234)">Video</text><text font-family="Aptos,Aptos_MSFontService,sans-serif" font-weight="400" font-size="16.0202" transform="matrix(1 0 0 1.00157 224.145 234)">-</text><text font-family="Aptos,Aptos_MSFontService,sans-serif" font-weight="400" font-size="16.0202" transform="matrix(1 0 0 1.00157 229.643 234)">App</text><path d="M112.822 162.651 170.348 208.943 169.095 210.504 111.569 164.212ZM110.73 167.39 107 159.25 115.739 161.145ZM171.187 205.765 174.917 213.905 166.178 212.01Z"/><text font-family="Aptos,Aptos_MSFontService,sans-serif" font-weight="400" font-size="16.0202" transform="matrix(0.782109 0.625106 -0.622161 0.783341 122.974 169)">Socket</text><path d="M6.66585-0.9922 125.019-0.859289 125.016 1.14008 6.66361 1.00717ZM7.99298 4.00772 0 0 8.00197-3.98976ZM123.689-3.85984 131.682 0.14788 123.68 4.13764Z" transform="matrix(1 0 0 -1.00157 282 168.413)"/><path d="M5.83161 3.37757 52.7283 40.8273 51.4806 42.3897 4.58399 4.93991ZM3.75412 8.11518 0 0 8.74462 1.86581ZM53.5581 37.652 57.3122 45.7672 48.5676 43.9014Z" transform="matrix(-1 0 0 1.00157 282.312 168.265)"/><path d="M144.141 82.5891 144.018 34.7217 146.017 34.7166 146.141 82.5839ZM141.022 36.0645 145 28.0441 149.019 36.0438Z"/><text font-family="Aptos,Aptos_MSFontService,sans-serif" font-weight="400" font-size="16.0202" transform="matrix(1 0 0 1.00157 122.475 25)">Server</text></g></svg>