<svg width="605" height="303" xmlns="http://www.w3.org/2000/svg" xmlns:xlink="http://www.w3.org/1999/xlink" overflow="hidden"><defs><clipPath id="clip0"><rect x="0" y="0" width="605" height="303"/></clipPath></defs><g clip-path="url(#clip0)"><rect x="0" y="0" width="605" height="303.417" fill="#FFFFFF"/><rect x="10" y="11.0151" width="306" height="284.391" fill="#AEAEAE"/><path d="M6.57651 1.48981 187.342 71.9485 186.616 73.8125 5.84997 3.35377ZM6.00278 6.63406 0 0 8.90892-0.821791ZM187.189 68.6682 193.192 75.3022 184.283 76.124Z" fill="#156082" transform="matrix(1 0 0 -1.00138 303 137.491)"/><path d="M195.458 132.688 134.589 61.7936 136.106 60.4875 196.975 131.382ZM198.381 128.41 200.564 137.098 192.313 133.634ZM133.183 64.7654 131 56.0771 139.251 59.5412Z" fill="#A02B93"/><text font-family="Times New Roman,Times New Roman_MSFontService,sans-serif" font-weight="400" font-size="16.0264" transform="matrix(0.932263 -0.362779 0.361285 0.933546 322.154 84)">Requesting</text><text font-family="Times New Roman,Times New Roman_MSFontService,sans-serif" font-weight="400" font-size="16.0264" transform="matrix(0.932263 -0.362779 0.361285 0.933546 393.181 56)">html</text><text font-family="Times New Roman,Times New Roman_MSFontService,sans-serif" font-weight="400" font-size="16.0264" transform="matrix(0.932263 -0.362779 0.361285 0.933546 420.69 45)">/</text><text font-family="Times New Roman,Times New Roman_MSFontService,sans-serif" font-weight="400" font-size="16.0264" transform="matrix(0.932263 -0.362779 0.361285 0.933546 329.38 102)">Requesting</text><text font-family="Times New Roman,Times New Roman_MSFontService,sans-serif" font-weight="400" font-size="16.0264" transform="matrix(0.932263 -0.362779 0.361285 0.933546 400.14 75)">Video/</text><text font-family="Times New Roman,Times New Roman_MSFontService,sans-serif" font-weight="400" font-size="16.0264" transform="matrix(0.932263 -0.362779 0.361285 0.933546 336.244 120)">Streaming via HLS</text><path d="M309.657 138.264 495.007 197.471 494.399 199.379 309.049 140.172ZM309.408 143.441 303 137.189 311.84 135.807ZM494.648 194.202 501.055 200.454 492.216 201.836Z" fill="#156082"/><path d="M4.84721 4.68769 66.3056 84.9913 64.717 86.2072 3.25853 5.90354ZM1.68607 8.78642 0 0 8.04078 3.923ZM67.8781 82.1084 69.5642 90.8949 61.5234 86.9719Z" fill="#A02B93" transform="matrix(-1 0 0 1.00138 200.564 137.189)"/><text font-family="Times New Roman,Times New Roman_MSFontService,sans-serif" font-weight="400" font-size="16.0264" transform="matrix(0.950039 0.312991 -0.311702 0.951347 376.106 153)">Uploading</text><text font-family="Times New Roman,Times New Roman_MSFontService,sans-serif" font-weight="400" font-size="16.0264" transform="matrix(0.950039 0.312991 -0.311702 0.951347 447.74 177)">Videos</text><text font-family="Times New Roman,Times New Roman_MSFontService,sans-serif" font-weight="400" font-size="16.0264" transform="matrix(1 0 0 1.00138 62.1162 111)">Database</text><text font-family="Times New Roman,Times New Roman_MSFontService,sans-serif" font-weight="400" font-size="16.0264" transform="matrix(1 0 0 1.00138 124.967 111)">for</text><text font-family="Times New Roman,Times New Roman_MSFontService,sans-serif" font-weight="400" font-size="16.0264" transform="matrix(1 0 0 1.00138 51.8401 131)">Video</text><text font-family="Times New Roman,Times New Roman_MSFontService,sans-serif" font-weight="400" font-size="16.0264" transform="matrix(1 0 0 1.00138 94.0583 131)">Metadata</text><g><g><g><path d="M76 18C76 22.4183 63.464 26 48 26 32.536 26 20 22.4183 20 18 20 13.5817 32.536 10 48 10 63.464 10 76 13.5817 76 18Z" transform="matrix(1 0 0 1.00138 55 8.01101)"/><path d="M68 38C66.8 38 66 37.2 66 36 66 34.8 66.8 34 68 34 69.2 34 70 34.8 70 36 70 37.2 69.2 38 68 38ZM48 30C32.6 30 20 26.4 20 22L20 38C20 42.4 32.6 46 48 46 63.4 46 76 42.4 76 38L76 22C76 26.4 63.4 30 48 30Z" transform="matrix(1 0 0 1.00138 55 8.01101)"/><path d="M68 58C66.8 58 66 57.2 66 56 66 54.8 66.8 54 68 54 69.2 54 70 54.8 70 56 70 57.2 69.2 58 68 58ZM48 50C32.6 50 20 46.4 20 42L20 58C20 62.4 32.6 66 48 66 63.4 66 76 62.4 76 58L76 42C76 46.4 63.4 50 48 50Z" transform="matrix(1 0 0 1.00138 55 8.01101)"/><path d="M68 78C66.8 78 66 77.2 66 76 66 74.8 66.8 74 68 74 69.2 74 70 74.8 70 76 70 77.2 69.2 78 68 78ZM48 70C32.6 70 20 66.4 20 62L20 78C20 82.4 32.6 86 48 86 63.4 86 76 82.4 76 78L76 62C76 66.4 63.4 70 48 70Z" transform="matrix(1 0 0 1.00138 55 8.01101)"/></g></g></g><g><g><g><path d="M84.1157 77.1061 56.0772 77.1061 56.0772 73.1006 49.0675 73.1006 49.0675 64.0882 76.1047 64.0882C78.3169 64.0882 80.1102 62.2948 80.1102 60.0827L80.1102 50.0689C80.1065 48.9142 79.6015 47.818 78.7263 47.0648 79.6015 46.3115 80.1065 45.2153 80.1102 44.0606L80.1102 34.0468C80.1065 32.8922 79.6015 31.796 78.7263 31.0427 79.6015 30.2895 80.1065 29.1933 80.1102 28.0386L80.1102 18.0248C80.1102 15.8127 78.3169 14.0193 76.1047 14.0193L20.0276 14.0193C17.8154 14.0193 16.022 15.8127 16.022 18.0248L16.022 28.0386C16.0258 29.1933 16.5307 30.2895 17.406 31.0427 16.5307 31.796 16.0258 32.8922 16.022 34.0468L16.022 44.0606C16.0258 45.2153 16.5307 46.3115 17.406 47.0648 16.5307 47.818 16.0258 48.9142 16.022 50.0689L16.022 60.0827C16.022 62.2948 17.8154 64.0882 20.0276 64.0882L47.0648 64.0882 47.0648 73.1006 40.0551 73.1006 40.0551 77.1061 12.0165 77.1061 12.0165 79.1089 40.0551 79.1089 40.0551 83.1144 56.0772 83.1144 56.0772 79.1089 84.1157 79.1089ZM18.0248 28.0386 18.0248 18.0248C18.0248 16.9187 18.9214 16.022 20.0276 16.022L76.1047 16.022C77.2108 16.022 78.1075 16.9187 78.1075 18.0248L78.1075 28.0386C78.1075 29.1447 77.2108 30.0413 76.1047 30.0413L20.0276 30.0413C18.9214 30.0413 18.0248 29.1447 18.0248 28.0386ZM18.0248 44.0606 18.0248 34.0468C18.0248 32.9407 18.9214 32.0441 20.0276 32.0441L76.1047 32.0441C77.2108 32.0441 78.1075 32.9407 78.1075 34.0468L78.1075 44.0606C78.1075 45.1668 77.2108 46.0634 76.1047 46.0634L20.0276 46.0634C18.9214 46.0634 18.0248 45.1668 18.0248 44.0606ZM18.0248 60.0827 18.0248 50.0689C18.0248 48.9628 18.9214 48.0661 20.0276 48.0661L76.1047 48.0661C77.2108 48.0661 78.1075 48.9628 78.1075 50.0689L78.1075 60.0827C78.1075 61.1888 77.2108 62.0854 76.1047 62.0854L20.0276 62.0854C18.9214 62.0854 18.0248 61.1888 18.0248 60.0827ZM54.0744 81.1116 42.0579 81.1116 42.0579 75.1033 54.0744 75.1033Z" transform="matrix(1.05064 0 0 1 201 89.1225)"/><path d="M28.0386 23.0317C28.0386 24.1378 27.1419 25.0344 26.0358 25.0344 24.9297 25.0344 24.0331 24.1378 24.0331 23.0317 24.0331 21.9256 24.9297 21.0289 26.0358 21.0289 27.1419 21.0289 28.0386 21.9256 28.0386 23.0317Z" transform="matrix(1.05064 0 0 1 201 89.1225)"/><path d="M38.0524 23.0317C38.0524 24.1378 37.1557 25.0344 36.0496 25.0344 34.9435 25.0344 34.0468 24.1378 34.0468 23.0317 34.0468 21.9256 34.9435 21.0289 36.0496 21.0289 37.1557 21.0289 38.0524 21.9256 38.0524 23.0317Z" transform="matrix(1.05064 0 0 1 201 89.1225)"/><path d="M48.0661 23.0317C48.0661 24.1378 47.1695 25.0344 46.0634 25.0344 44.9573 25.0344 44.0606 24.1378 44.0606 23.0317 44.0606 21.9256 44.9573 21.0289 46.0634 21.0289 47.1695 21.0289 48.0661 21.9256 48.0661 23.0317Z" transform="matrix(1.05064 0 0 1 201 89.1225)"/><path d="M28.0386 39.0537C28.0386 40.1598 27.1419 41.0565 26.0358 41.0565 24.9297 41.0565 24.0331 40.1598 24.0331 39.0537 24.0331 37.9477 24.9297 37.051 26.0358 37.051 27.1419 37.051 28.0386 37.9477 28.0386 39.0537Z" transform="matrix(1.05064 0 0 1 201 89.1225)"/><path d="M38.0524 39.0537C38.0524 40.1598 37.1557 41.0565 36.0496 41.0565 34.9435 41.0565 34.0468 40.1598 34.0468 39.0537 34.0468 37.9477 34.9435 37.051 36.0496 37.051 37.1557 37.051 38.0524 37.9477 38.0524 39.0537Z" transform="matrix(1.05064 0 0 1 201 89.1225)"/><path d="M48.0661 39.0537C48.0661 40.1598 47.1695 41.0565 46.0634 41.0565 44.9573 41.0565 44.0606 40.1598 44.0606 39.0537 44.0606 37.9477 44.9573 37.051 46.0634 37.051 47.1695 37.051 48.0661 37.9477 48.0661 39.0537Z" transform="matrix(1.05064 0 0 1 201 89.1225)"/><path d="M28.0386 55.0758C28.0386 56.1819 27.1419 57.0785 26.0358 57.0785 24.9297 57.0785 24.0331 56.1819 24.0331 55.0758 24.0331 53.9697 24.9297 53.073 26.0358 53.073 27.1419 53.073 28.0386 53.9697 28.0386 55.0758Z" transform="matrix(1.05064 0 0 1 201 89.1225)"/><path d="M38.0524 55.0758C38.0524 56.1819 37.1557 57.0785 36.0496 57.0785 34.9435 57.0785 34.0468 56.1819 34.0468 55.0758 34.0468 53.9697 34.9435 53.073 36.0496 53.073 37.1557 53.073 38.0524 53.9697 38.0524 55.0758Z" transform="matrix(1.05064 0 0 1 201 89.1225)"/><path d="M48.0661 55.0758C48.0661 56.1819 47.1695 57.0785 46.0634 57.0785 44.9573 57.0785 44.0606 56.1819 44.0606 55.0758 44.0606 53.9697 44.9573 53.073 46.0634 53.073 47.1695 53.073 48.0661 53.9697 48.0661 55.0758Z" transform="matrix(1.05064 0 0 1 201 89.1225)"/></g></g></g><g><g><g><path d="M42.5833 44.1041 6.08333 44.1041 6.08333 19.7708 42.5833 19.7708 42.5833 44.1041ZM44.1041 15.2083 4.5625 15.2083C2.88958 15.2083 1.52083 16.5771 1.52083 18.25L1.52083 45.625C1.52083 47.2979 2.88958 48.6666 4.5625 48.6666L19.7708 48.6666 19.7708 53.2291 12.9271 53.2291 12.9271 57.7916 35.7396 57.7916 35.7396 53.2291 28.8958 53.2291 28.8958 48.6666 44.1041 48.6666C45.7771 48.6666 47.1458 47.2979 47.1458 45.625L47.1458 18.25C47.1458 16.5771 45.7771 15.2083 44.1041 15.2083Z" transform="matrix(1 0 0 1.00138 508 20.0276)"/><path d="M68.4375 22.8125 53.2291 22.8125 53.2291 18.25 68.4375 18.25 68.4375 22.8125ZM68.4375 30.4166 53.2291 30.4166 53.2291 25.8541 68.4375 25.8541 68.4375 30.4166ZM60.8333 53.2291C59.5406 53.2291 58.552 52.2406 58.552 50.9479 58.552 49.6552 59.5406 48.6666 60.8333 48.6666 62.126 48.6666 63.1145 49.6552 63.1145 50.9479 63.1145 52.2406 62.126 53.2291 60.8333 53.2291ZM68.4375 15.2083 53.2291 15.2083C51.5562 15.2083 50.1875 16.5771 50.1875 18.25L50.1875 54.75C50.1875 56.4229 51.5562 57.7916 53.2291 57.7916L68.4375 57.7916C70.1104 57.7916 71.4791 56.4229 71.4791 54.75L71.4791 18.25C71.4791 16.5771 70.1104 15.2083 68.4375 15.2083Z" transform="matrix(1 0 0 1.00138 508 20.0276)"/></g></g></g><g><g><g><path d="M76 18C76 22.4183 63.464 26 48 26 32.536 26 20 22.4183 20 18 20 13.5817 32.536 10 48 10 63.464 10 76 13.5817 76 18Z" transform="matrix(1 0 0 1.00138 55 167.23)"/><path d="M68 38C66.8 38 66 37.2 66 36 66 34.8 66.8 34 68 34 69.2 34 70 34.8 70 36 70 37.2 69.2 38 68 38ZM48 30C32.6 30 20 26.4 20 22L20 38C20 42.4 32.6 46 48 46 63.4 46 76 42.4 76 38L76 22C76 26.4 63.4 30 48 30Z" transform="matrix(1 0 0 1.00138 55 167.23)"/><path d="M68 58C66.8 58 66 57.2 66 56 66 54.8 66.8 54 68 54 69.2 54 70 54.8 70 56 70 57.2 69.2 58 68 58ZM48 50C32.6 50 20 46.4 20 42L20 58C20 62.4 32.6 66 48 66 63.4 66 76 62.4 76 58L76 42C76 46.4 63.4 50 48 50Z" transform="matrix(1 0 0 1.00138 55 167.23)"/><path d="M68 78C66.8 78 66 77.2 66 76 66 74.8 66.8 74 68 74 69.2 74 70 74.8 70 76 70 77.2 69.2 78 68 78ZM48 70C32.6 70 20 66.4 20 62L20 78C20 82.4 32.6 86 48 86 63.4 86 76 82.4 76 78L76 62C76 66.4 63.4 70 48 70Z" transform="matrix(1 0 0 1.00138 55 167.23)"/></g></g></g><text font-family="Times New Roman,Times New Roman_MSFontService,sans-serif" font-weight="400" font-size="16.0264" transform="matrix(1 0 0 1.00138 64.777 267)">File System</text><text font-family="Times New Roman,Times New Roman_MSFontService,sans-serif" font-weight="400" font-size="16.0264" transform="matrix(1 0 0 1.00138 60.8425 287)">(</text><text font-family="Times New Roman,Times New Roman_MSFontService,sans-serif" font-weight="400" font-size="16.0264" transform="matrix(1 0 0 1.00138 66.1773 287)">Video Files</text><text font-family="Times New Roman,Times New Roman_MSFontService,sans-serif" font-weight="400" font-size="16.0264" transform="matrix(1 0 0 1.00138 139.571 287)">)</text><text font-family="Times New Roman,Times New Roman_MSFontService,sans-serif" font-weight="400" font-size="16.0264" transform="matrix(1 0 0 1.00138 190.594 194)">SpringBoot</text><text font-family="Times New Roman,Times New Roman_MSFontService,sans-serif" font-weight="400" font-size="16.0264" transform="matrix(1 0 0 1.00138 268.449 194)">Server</text><g><g><g><path d="M42.5833 44.1041 6.08333 44.1041 6.08333 19.7708 42.5833 19.7708 42.5833 44.1041ZM44.1041 15.2083 4.5625 15.2083C2.88958 15.2083 1.52083 16.5771 1.52083 18.25L1.52083 45.625C1.52083 47.2979 2.88958 48.6666 4.5625 48.6666L19.7708 48.6666 19.7708 53.2291 12.9271 53.2291 12.9271 57.7916 35.7396 57.7916 35.7396 53.2291 28.8958 53.2291 28.8958 48.6666 44.1041 48.6666C45.7771 48.6666 47.1458 47.2979 47.1458 45.625L47.1458 18.25C47.1458 16.5771 45.7771 15.2083 44.1041 15.2083Z" transform="matrix(1 0 0 1.00138 508 167.23)"/><path d="M68.4375 22.8125 53.2291 22.8125 53.2291 18.25 68.4375 18.25 68.4375 22.8125ZM68.4375 30.4166 53.2291 30.4166 53.2291 25.8541 68.4375 25.8541 68.4375 30.4166ZM60.8333 53.2291C59.5406 53.2291 58.552 52.2406 58.552 50.9479 58.552 49.6552 59.5406 48.6666 60.8333 48.6666 62.126 48.6666 63.1145 49.6552 63.1145 50.9479 63.1145 52.2406 62.126 53.2291 60.8333 53.2291ZM68.4375 15.2083 53.2291 15.2083C51.5562 15.2083 50.1875 16.5771 50.1875 18.25L50.1875 54.75C50.1875 56.4229 51.5562 57.7916 53.2291 57.7916L68.4375 57.7916C70.1104 57.7916 71.4791 56.4229 71.4791 54.75L71.4791 18.25C71.4791 16.5771 70.1104 15.2083 68.4375 15.2083Z" transform="matrix(1 0 0 1.00138 508 167.23)"/></g></g></g><text font-family="Times New Roman,Times New Roman_MSFontService,sans-serif" font-weight="400" font-size="16.0264" transform="matrix(1 0 0 1.00138 529.616 252)">Dart</text><text font-family="Times New Roman,Times New Roman_MSFontService,sans-serif" font-weight="400" font-size="16.0264" transform="matrix(1 0 0 1.00138 529.616 105)">User</text></g></svg>