<svg width="605" height="303" xmlns="http://www.w3.org/2000/svg" xmlns:xlink="http://www.w3.org/1999/xlink" overflow="hidden"><defs><clipPath id="clip0"><rect x="0" y="0" width="605" height="303"/></clipPath></defs><g clip-path="url(#clip0)"><rect x="0" y="0" width="605" height="303.417" fill="#FFFFFF"/><rect x="178" y="21.0289" width="330" height="261.359" stroke="#042433" stroke-width="2.00055" stroke-miterlimit="8" fill="#156082" fill-opacity="0.4"/><rect x="188" y="204.281" width="207" height="63.0867" stroke="#042433" stroke-width="2.00055" stroke-miterlimit="8" fill="#AEAEAE"/><path d="M74.0001 150.206 171.146 150.216 171.146 152.219 73.9999 152.21ZM169.813 147.211 177.815 151.218 169.812 155.224Z"/><rect x="86" y="130.179" width="76" height="44.0605" stroke="#042433" stroke-width="2.00055" stroke-miterlimit="8" fill="#F2AA84" fill-opacity="0.8"/><text font-family="Times New Roman,Times New Roman_MSFontService,sans-serif" font-weight="400" font-size="16.0264" transform="matrix(1 0 0 1.00138 86.9542 150)">Videodaten</text><text font-family="Times New Roman,Times New Roman_MSFontService,sans-serif" font-weight="400" font-size="16.0264" transform="matrix(1 0 0 1.00138 95.1432 170)">(YUYV)</text><path d="M178.851 150.682 214.068 207.842 212.365 208.894 177.149 151.734ZM215.921 205.128 216.718 214.051 209.111 209.335Z"/><text font-family="Times New Roman,Times New Roman_MSFontService,sans-serif" font-weight="400" font-size="16.0264" transform="matrix(1 0 0 1.00138 277.443 232)">Video Aufnahme</text><text font-family="Times New Roman,Times New Roman_MSFontService,sans-serif" font-weight="400" font-size="16.0264" transform="matrix(1 0 0 1.00138 292.861 252)">Anwendung</text><text font-family="Times New Roman,Times New Roman_MSFontService,sans-serif" font-weight="400" font-size="16.0264" transform="matrix(1 0 0 1.00138 460.012 272)">HB10</text><path d="M258.067 218.452C267.714 230.756 265.501 248.607 253.123 258.324 240.744 268.041 222.889 265.944 213.242 253.64 203.594 241.336 205.808 223.485 218.186 213.768 226.658 207.117 238.13 205.784 247.835 210.322L250.065 208.472 254.148 220.705 237.834 218.618 239.785 216.999C229.264 214.821 218.887 221.582 216.605 232.101 214.324 242.62 221.003 252.914 231.523 255.093 242.044 257.271 252.422 250.51 254.703 239.991 255.926 234.35 254.586 228.481 251.043 223.966Z" stroke="#042433" stroke-width="2.00145" stroke-miterlimit="8" fill="#156082" fill-rule="evenodd"/><rect x="298" y="113.156" width="204" height="76.1047" stroke="#042433" stroke-width="2.00055" stroke-miterlimit="8" fill="#AEAEAE"/><rect x="411" y="135.186" width="83" height="43.0592" stroke="#042433" stroke-width="2.00055" stroke-miterlimit="8" fill="#F2AA84" fill-opacity="0.8"/><text font-family="Times New Roman,Times New Roman_MSFontService,sans-serif" font-weight="400" font-size="16.0264" transform="matrix(1 0 0 1.00138 432.874 153)">Video</text><text font-family="Times New Roman,Times New Roman_MSFontService,sans-serif" font-weight="400" font-size="16.0264" transform="matrix(1 0 0 1.00138 416.81 173)">(.m3u8/.</text><text font-family="Times New Roman,Times New Roman_MSFontService,sans-serif" font-weight="400" font-size="16.0264" transform="matrix(1 0 0 1.00138 471.158 173)">ts</text><text font-family="Times New Roman,Times New Roman_MSFontService,sans-serif" font-weight="400" font-size="16.0264" transform="matrix(1 0 0 1.00138 481.828 173)">)</text><rect x="307" y="135.186" width="80.0001" height="43.0592" stroke="#042433" stroke-width="2.00055" stroke-miterlimit="8" fill="#F2AA84" fill-opacity="0.8"/><text font-family="Times New Roman,Times New Roman_MSFontService,sans-serif" font-weight="400" font-size="16.0264" transform="matrix(1 0 0 1.00138 308.603 152)">r</text><text font-family="Times New Roman,Times New Roman_MSFontService,sans-serif" font-weight="400" font-size="16.0264" transform="matrix(1 0 0 1.00138 313.938 152)">ohe</text><text font-family="Times New Roman,Times New Roman_MSFontService,sans-serif" font-weight="400" font-size="16.0264" transform="matrix(1 0 0 1.00138 337.111 152)">r</text><text font-family="Times New Roman,Times New Roman_MSFontService,sans-serif" font-weight="400" font-size="16.0264" transform="matrix(1 0 0 1.00138 346.16 152)">Video</text><text font-family="Times New Roman,Times New Roman_MSFontService,sans-serif" font-weight="400" font-size="16.0264" transform="matrix(1 0 0 1.00138 312.231 172)">Part</text><text font-family="Times New Roman,Times New Roman_MSFontService,sans-serif" font-weight="400" font-size="16.0264" transform="matrix(1 0 0 1.00138 342.072 172)">(.</text><text font-family="Times New Roman,Times New Roman_MSFontService,sans-serif" font-weight="400" font-size="16.0264" transform="matrix(1 0 0 1.00138 351.408 172)">yuv</text><text font-family="Times New Roman,Times New Roman_MSFontService,sans-serif" font-weight="400" font-size="16.0264" transform="matrix(1 0 0 1.00138 375.415 172)">)</text><path d="M0.759222-0.651255 52.9154 60.1515 51.397 61.454-0.759222 0.651255ZM54.3247 57.1854 56.4979 65.8642 48.2509 62.3955Z" transform="matrix(1 0 0 -1.00138 396 244.2)"/><text font-family="Times New Roman,Times New Roman_MSFontService,sans-serif" font-weight="400" font-size="16.0264" transform="matrix(1 0 0 1.00138 300.66 128)">Datei System</text><path d="M1.0003 6.6685 1.00036 22.6159-1.00019 22.6159-1.00025 6.66851ZM-4.00107 8.00222 0 0 4.00113 8.00219ZM4.00118 21.2822 0.000105016 29.2844-4.00103 21.2822Z" transform="matrix(1 0 0 -1.00138 347 207.57)"/><rect x="189" y="39.0537" width="313" height="63.0867" stroke="#042433" stroke-width="2.00055" stroke-miterlimit="8" fill="#AEAEAE"/><path d="M1.00028 6.66849 1.00037 95.8716-1.00018 95.8716-1.00027 6.66849ZM-4.00109 8.00221 0 0 4.00111 8.0022ZM4.0012 94.5378 0.000105016 102.54-4.00101 94.5379Z" transform="matrix(1 0 0 -1.00138 255 204.822)"/><path d="M1.00029 6.6685 1.00036 31.5121-1.00019 31.5121-1.00026 6.66851ZM-4.00108 8.00222 0 0 4.00112 8.00219ZM4.00119 30.1784 0.000105016 38.1806-4.00102 30.1784Z" transform="matrix(1 0 0 -1.00138 452 135.367)"/><text font-family="Times New Roman,Times New Roman_MSFontService,sans-serif" font-weight="400" font-size="16.0264" transform="matrix(1 0 0 1.00138 211.63 77)">Haupt Dart Anwendung</text><rect x="215" y="142.195" width="75.9999" height="22.0304" stroke="#042433" stroke-width="2.00055" stroke-miterlimit="8" fill="#F2AA84" fill-opacity="0.8"/><text font-family="Times New Roman,Times New Roman_MSFontService,sans-serif" font-weight="400" font-size="16.0264" transform="matrix(1 0 0 1.00138 231.075 159)">Socket</text><rect x="194" y="241.332" width="83" height="22.0303" stroke="#042433" stroke-width="2.00055" stroke-miterlimit="8" fill="#F2AA84" fill-opacity="0.8"/><path d="M488 69.0947 542.275 69.0948 542.275 71.0981 488 71.098ZM540.941 66.0898 548.943 70.0965 540.941 74.1031Z"/><text font-family="Times New Roman,Times New Roman_MSFontService,sans-serif" font-weight="400" font-size="16.0264" transform="matrix(1 0 0 1.00138 547.481 97)">Storage</text><text font-family="Times New Roman,Times New Roman_MSFontService,sans-serif" font-weight="400" font-size="16.0264" transform="matrix(1 0 0 1.00138 551.068 117)">Server</text><g><g><g><path d="M26.25 27.1875 3.75 27.1875 3.75 12.1875 26.25 12.1875 26.25 27.1875ZM27.1875 9.375 2.8125 9.375C1.78125 9.375 0.9375 10.2188 0.9375 11.25L0.9375 28.125C0.9375 29.1563 1.78125 30 2.8125 30L12.1875 30 12.1875 32.8125 7.96875 32.8125 7.96875 35.625 22.0313 35.625 22.0313 32.8125 17.8125 32.8125 17.8125 30 27.1875 30C28.2188 30 29.0625 29.1563 29.0625 28.125L29.0625 11.25C29.0625 10.2188 28.2188 9.375 27.1875 9.375Z" transform="matrix(1 0 0 1.00138 406 233.321)"/><path d="M42.1875 14.0625 32.8125 14.0625 32.8125 11.25 42.1875 11.25 42.1875 14.0625ZM42.1875 18.75 32.8125 18.75 32.8125 15.9375 42.1875 15.9375 42.1875 18.75ZM37.5 32.8125C36.7031 32.8125 36.0938 32.2031 36.0938 31.4063 36.0938 30.6094 36.7031 30 37.5 30 38.2969 30 38.9063 30.6094 38.9063 31.4063 38.9063 32.2031 38.2969 32.8125 37.5 32.8125ZM42.1875 9.375 32.8125 9.375C31.7813 9.375 30.9375 10.2188 30.9375 11.25L30.9375 33.75C30.9375 34.7813 31.7813 35.625 32.8125 35.625L42.1875 35.625C43.2188 35.625 44.0625 34.7813 44.0625 33.75L44.0625 11.25C44.0625 10.2188 43.2188 9.375 42.1875 9.375Z" transform="matrix(1 0 0 1.00138 406 233.321)"/></g></g></g><g><g><g><path d="M19.9688 23.6667C19.9688 24.4836 19.3065 25.1458 18.4896 25.1458 17.6727 25.1458 17.0104 24.4836 17.0104 23.6667 17.0104 22.8498 17.6727 22.1875 18.4896 22.1875 19.3065 22.1875 19.9688 22.8498 19.9688 23.6667Z" transform="matrix(1 0 0 1.00138 2.99999 116.16)"/><path d="M19.9688 29.5833C19.9688 30.4003 19.3065 31.0625 18.4896 31.0625 17.6727 31.0625 17.0104 30.4003 17.0104 29.5833 17.0104 28.7664 17.6727 28.1042 18.4896 28.1042 19.3065 28.1042 19.9688 28.7664 19.9688 29.5833Z" transform="matrix(1 0 0 1.00138 2.99999 116.16)"/><path d="M17.0104 26.625C17.0104 27.4419 16.3482 28.1042 15.5313 28.1042 14.7143 28.1042 14.0521 27.4419 14.0521 26.625 14.0521 25.8081 14.7143 25.1458 15.5313 25.1458 16.3482 25.1458 17.0104 25.8081 17.0104 26.625Z" transform="matrix(1 0 0 1.00138 2.99999 116.16)"/><path d="M22.9271 26.625C22.9271 27.4419 22.2648 28.1042 21.4479 28.1042 20.631 28.1042 19.9688 27.4419 19.9688 26.625 19.9688 25.8081 20.631 25.1458 21.4479 25.1458 22.2648 25.1458 22.9271 25.8081 22.9271 26.625Z" transform="matrix(1 0 0 1.00138 2.99999 116.16)"/><path d="M40.6771 20.7083C40.6771 21.5253 40.0149 22.1875 39.1979 22.1875 38.381 22.1875 37.7188 21.5253 37.7188 20.7083 37.7188 19.8914 38.381 19.2292 39.1979 19.2292 40.0149 19.2292 40.6771 19.8914 40.6771 20.7083Z" transform="matrix(1 0 0 1.00138 2.99999 116.16)"/><path d="M40.6771 26.625C40.6771 27.4419 40.0149 28.1042 39.1979 28.1042 38.381 28.1042 37.7188 27.4419 37.7188 26.625 37.7188 25.8081 38.381 25.1458 39.1979 25.1458 40.0149 25.1458 40.6771 25.8081 40.6771 26.625Z" transform="matrix(1 0 0 1.00138 2.99999 116.16)"/><path d="M37.7188 23.6667C37.7188 24.4836 37.0565 25.1458 36.2396 25.1458 35.4227 25.1458 34.7604 24.4836 34.7604 23.6667 34.7604 22.8498 35.4227 22.1875 36.2396 22.1875 37.0565 22.1875 37.7188 22.8498 37.7188 23.6667Z" transform="matrix(1 0 0 1.00138 2.99999 116.16)"/><path d="M43.6354 23.6667C43.6354 24.4836 42.9732 25.1458 42.1563 25.1458 41.3393 25.1458 40.6771 24.4836 40.6771 23.6667 40.6771 22.8498 41.3393 22.1875 42.1563 22.1875 42.9732 22.1875 43.6354 22.8498 43.6354 23.6667Z" transform="matrix(1 0 0 1.00138 2.99999 116.16)"/><path d="M60.6459 33.2813 56.2084 37.7188 50.2917 37.7188 50.2917 53.9896 56.2084 53.9896 60.6459 58.4271 65.0834 58.4271 65.0834 33.2813Z" transform="matrix(1 0 0 1.00138 2.99999 116.16)"/><path d="M39.1979 30.3229C35.5 30.3229 32.5417 27.3646 32.5417 23.6667 32.5417 19.9688 35.5 17.0104 39.1979 17.0104 42.8959 17.0104 45.8542 19.9688 45.8542 23.6667 45.8542 27.3646 42.8959 30.3229 39.1979 30.3229ZM41.4167 53.9896C40.6031 53.9896 39.9375 53.324 39.9375 52.5104 39.9375 51.6969 40.6031 51.0313 41.4167 51.0313 42.2302 51.0313 42.8959 51.6969 42.8959 52.5104 42.8959 53.324 42.2302 53.9896 41.4167 53.9896ZM27.3646 33.2813C28.3261 31.95 29.0656 30.4708 29.3615 28.7698 30.3229 30.6188 31.8761 32.1719 33.6511 33.2813L27.3646 33.2813ZM18.4896 33.2813C14.7917 33.2813 11.8333 30.3229 11.8333 26.625 11.8333 22.9271 14.7917 19.9688 18.4896 19.9688 22.1875 19.9688 25.1458 22.9271 25.1458 26.625 25.1458 30.3229 22.1875 33.2813 18.4896 33.2813ZM44.6709 33.2813C47.999 31.3583 50.2917 27.8083 50.2917 23.6667 50.2917 17.5281 45.3365 12.5729 39.1979 12.5729 33.799 12.5729 29.3615 16.4188 28.3261 21.5219 26.4771 17.9719 22.7792 15.5313 18.4896 15.5313 12.351 15.5313 7.39584 20.4865 7.39584 26.625 7.39584 30.249 9.17084 33.4292 11.8333 35.5L11.8333 37.7188 10.3542 37.7188 8.875 36.2396 5.91667 36.2396 5.91667 43.6354 8.875 43.6354 10.3542 42.1563 11.8333 42.1563 11.8333 55.4688C11.8333 57.0959 13.1646 58.4271 14.7917 58.4271L44.375 58.4271C46.0021 58.4271 47.3334 57.0959 47.3334 55.4688L47.3334 36.2396C47.3334 34.6865 46.15 33.4292 44.6709 33.2813Z" transform="matrix(1 0 0 1.00138 2.99999 116.16)"/></g></g></g><g><g><g><path d="M52.5 48.125 35 48.125 35 45.625 30.625 45.625 30.625 40 47.5 40C48.8806 40 50 38.8806 50 37.5L50 31.25C49.9976 30.5293 49.6824 29.8451 49.1362 29.375 49.6824 28.9048 49.9976 28.2207 50 27.5L50 21.25C49.9976 20.5293 49.6824 19.8451 49.1362 19.375 49.6824 18.9049 49.9976 18.2207 50 17.5L50 11.25C50 9.8693 48.8806 8.74999 47.5 8.74999L12.5 8.74999C11.1193 8.74999 9.99999 9.8693 9.99999 11.25L9.99999 17.5C10.0023 18.2207 10.3175 18.9049 10.8637 19.375 10.3175 19.8451 10.0023 20.5293 9.99999 21.25L9.99999 27.5C10.0023 28.2207 10.3175 28.9048 10.8637 29.375 10.3175 29.8451 10.0023 30.5293 9.99999 31.25L9.99999 37.5C9.99999 38.8806 11.1193 40 12.5 40L29.375 40 29.375 45.625 25 45.625 25 48.125 7.49999 48.125 7.49999 49.375 25 49.375 25 51.875 35 51.875 35 49.375 52.5 49.375ZM11.25 17.5 11.25 11.25C11.25 10.5596 11.8096 9.99999 12.5 9.99999L47.5 9.99999C48.1903 9.99999 48.75 10.5596 48.75 11.25L48.75 17.5C48.75 18.1904 48.1903 18.75 47.5 18.75L12.5 18.75C11.8096 18.75 11.25 18.1904 11.25 17.5ZM11.25 27.5 11.25 21.25C11.25 20.5596 11.8096 20 12.5 20L47.5 20C48.1903 20 48.75 20.5596 48.75 21.25L48.75 27.5C48.75 28.1903 48.1903 28.75 47.5 28.75L12.5 28.75C11.8096 28.75 11.25 28.1903 11.25 27.5ZM11.25 37.5 11.25 31.25C11.25 30.5596 11.8096 30 12.5 30L47.5 30C48.1903 30 48.75 30.5596 48.75 31.25L48.75 37.5C48.75 38.1903 48.1903 38.75 47.5 38.75L12.5 38.75C11.8096 38.75 11.25 38.1903 11.25 37.5ZM33.75 50.625 26.25 50.625 26.25 46.875 33.75 46.875Z" transform="matrix(1 0 0 1.01807 542 34.0468)"/><path d="M17.5 14.375C17.5 15.0653 16.9403 15.625 16.25 15.625 15.5596 15.625 15 15.0653 15 14.375 15 13.6846 15.5596 13.125 16.25 13.125 16.9403 13.125 17.5 13.6846 17.5 14.375Z" transform="matrix(1 0 0 1.01807 542 34.0468)"/><path d="M23.75 14.375C23.75 15.0653 23.1903 15.625 22.5 15.625 21.8096 15.625 21.25 15.0653 21.25 14.375 21.25 13.6846 21.8096 13.125 22.5 13.125 23.1903 13.125 23.75 13.6846 23.75 14.375Z" transform="matrix(1 0 0 1.01807 542 34.0468)"/><path d="M30 14.375C30 15.0653 29.4403 15.625 28.75 15.625 28.0596 15.625 27.5 15.0653 27.5 14.375 27.5 13.6846 28.0596 13.125 28.75 13.125 29.4403 13.125 30 13.6846 30 14.375Z" transform="matrix(1 0 0 1.01807 542 34.0468)"/><path d="M17.5 24.375C17.5 25.0653 16.9403 25.625 16.25 25.625 15.5596 25.625 15 25.0653 15 24.375 15 23.6846 15.5596 23.125 16.25 23.125 16.9403 23.125 17.5 23.6846 17.5 24.375Z" transform="matrix(1 0 0 1.01807 542 34.0468)"/><path d="M23.75 24.375C23.75 25.0653 23.1903 25.625 22.5 25.625 21.8096 25.625 21.25 25.0653 21.25 24.375 21.25 23.6846 21.8096 23.125 22.5 23.125 23.1903 23.125 23.75 23.6846 23.75 24.375Z" transform="matrix(1 0 0 1.01807 542 34.0468)"/><path d="M30 24.375C30 25.0653 29.4403 25.625 28.75 25.625 28.0596 25.625 27.5 25.0653 27.5 24.375 27.5 23.6846 28.0596 23.125 28.75 23.125 29.4403 23.125 30 23.6846 30 24.375Z" transform="matrix(1 0 0 1.01807 542 34.0468)"/><path d="M17.5 34.375C17.5 35.0653 16.9403 35.625 16.25 35.625 15.5596 35.625 15 35.0653 15 34.375 15 33.6846 15.5596 33.125 16.25 33.125 16.9403 33.125 17.5 33.6846 17.5 34.375Z" transform="matrix(1 0 0 1.01807 542 34.0468)"/><path d="M23.75 34.375C23.75 35.0653 23.1903 35.625 22.5 35.625 21.8096 35.625 21.25 35.0653 21.25 34.375 21.25 33.6846 21.8096 33.125 22.5 33.125 23.1903 33.125 23.75 33.6846 23.75 34.375Z" transform="matrix(1 0 0 1.01807 542 34.0468)"/><path d="M30 34.375C30 35.0653 29.4403 35.625 28.75 35.625 28.0596 35.625 27.5 35.0653 27.5 34.375 27.5 33.6846 28.0596 33.125 28.75 33.125 29.4403 33.125 30 33.6846 30 34.375Z" transform="matrix(1 0 0 1.01807 542 34.0468)"/></g></g></g><text font-family="Times New Roman,Times New Roman_MSFontService,sans-serif" font-weight="400" font-size="16.0264" transform="matrix(1 0 0 1.00138 199.845 258)">Ringbuffer</text></g></svg>